<?xml version="1.0" encoding="utf-8"?>
<!-- Generator: Adobe Illustrator 27.0.0, SVG Export Plug-In . SVG Version: 6.00 Build 0)  -->
<svg version="1.1" id="Layer_1" xmlns="http://www.w3.org/2000/svg" xmlns:xlink="http://www.w3.org/1999/xlink" x="0px" y="0px"
	 viewBox="0 0 474.94 182.34" style="enable-background:new 0 0 474.94 182.34;" xml:space="preserve">
<style type="text/css">
	.st0{fill:#1C2450;}
	.st1{fill:#FFFFFF;}
	.st2{fill:#C42328;}
</style>
<g>
	<rect class="st0" width="474.73" height="182.18"/>
	<path class="st1" d="M39.17,150.52V66.31h41.37v16.25c0,0,8.74-20.56,34.36-20.62c0,0,23.18-2.2,32.46,19.25
		c0,0,8.62-19.6,34.47-19.6c0,0,36.48-2.06,41.42,31.12c0,0,1.53,6.62,1.25,12.91v45.04h-43.14v-45.23c0,0-0.09-12.33-13.67-12.33
		c0,0-14.02-0.87-14.02,13.27v44.29h-43.66v-45.79c0,0,0.29-11.86-13.76-11.86c0,0-13.95-0.87-13.95,14.2v43.45L39.17,150.52z"/>
	<polygon class="st1" points="246.5,49.68 289.41,33.15 289.41,66.45 313.35,66.45 313.35,94.94 289.22,94.94 289.22,150.73 
		246.29,150.73 246.29,94.94 231.94,94.94 231.94,66.41 246.5,66.41 	"/>
	<polygon class="st1" points="318.42,66.41 361.44,66.41 383.24,139.58 404.61,66.31 447.77,66.31 420.02,150.63 346,150.63 	"/>
	<rect x="0.02" y="150.65" class="st2" width="474.92" height="31.68"/>
</g>
</svg>
